<svg width="82" height="24" viewBox="0 0 82 24" fill="none" xmlns="http://www.w3.org/2000/svg">
<path d="M20 20L15.0962 15.0962M15.0962 15.0962C16.2725 13.9199 17 12.2949 17 10.5C17 6.91015 14.0899 4 10.5 4C6.91015 4 4 6.91015 4 10.5C4 14.0899 6.91015 17 10.5 17C12.2949 17 13.9199 16.2725 15.0962 15.0962Z" stroke="#768298" stroke-width="1.8" stroke-linecap="round" stroke-linejoin="round"/>
<path d="M37.8047 17H36.4854V12.3994H31.4678V17H30.1553V7.04688H31.4678V11.3262H36.4854V7.04688H37.8047V17ZM44.6439 17C44.571 16.8542 44.5117 16.5944 44.4662 16.2207C43.8783 16.8314 43.1765 17.1367 42.3607 17.1367C41.6315 17.1367 41.0323 16.9316 40.5629 16.5215C40.098 16.1068 39.8656 15.5827 39.8656 14.9492C39.8656 14.179 40.1573 13.582 40.7406 13.1582C41.3285 12.7298 42.1533 12.5156 43.2152 12.5156H44.4457V11.9346C44.4457 11.4925 44.3135 11.1416 44.0492 10.8818C43.7849 10.6175 43.3952 10.4854 42.8802 10.4854C42.4291 10.4854 42.0508 10.5993 41.7455 10.8271C41.4401 11.055 41.2875 11.3307 41.2875 11.6543H40.016C40.016 11.2852 40.1459 10.9297 40.4056 10.5879C40.6699 10.2415 41.0254 9.9681 41.472 9.76758C41.9232 9.56706 42.4177 9.4668 42.9554 9.4668C43.8076 9.4668 44.4753 9.68099 44.9584 10.1094C45.4414 10.5332 45.6921 11.1188 45.7103 11.8662V15.2705C45.7103 15.9495 45.7969 16.4896 45.9701 16.8906V17H44.6439ZM42.5453 16.0361C42.9418 16.0361 43.3177 15.9336 43.6732 15.7285C44.0287 15.5234 44.2862 15.2568 44.4457 14.9287V13.4111H43.4545C41.905 13.4111 41.1302 13.8646 41.1302 14.7715C41.1302 15.168 41.2624 15.4779 41.5267 15.7012C41.791 15.9245 42.1306 16.0361 42.5453 16.0361ZM52.6179 9.60352H53.8825V17H52.6179V11.6064L49.2068 17H47.9421V9.60352H49.2068V15.0039L52.6179 9.60352ZM52.9597 6.91016C52.9597 7.46159 52.7706 7.90592 52.3923 8.24316C52.0186 8.57585 51.5264 8.74219 50.9157 8.74219C50.3051 8.74219 49.8106 8.57357 49.4323 8.23633C49.0541 7.89909 48.865 7.45703 48.865 6.91016H49.8972C49.8972 7.22917 49.9838 7.47982 50.157 7.66211C50.3301 7.83984 50.5831 7.92871 50.9157 7.92871C51.2348 7.92871 51.4831 7.83984 51.6609 7.66211C51.8432 7.48438 51.9343 7.23372 51.9343 6.91016H52.9597ZM61.5489 10.6289H59.0675V17H57.8028V10.6289H55.3692V9.60352H61.5489V10.6289ZM67.7045 9.60352H68.9692V17H67.7045V11.6064L64.2934 17H63.0288V9.60352H64.2934V15.0039L67.7045 9.60352ZM71.1668 16.3369C71.1668 16.1182 71.2306 15.9359 71.3582 15.79C71.4904 15.6442 71.6863 15.5713 71.9461 15.5713C72.2059 15.5713 72.4018 15.6442 72.534 15.79C72.6707 15.9359 72.7391 16.1182 72.7391 16.3369C72.7391 16.5465 72.6707 16.722 72.534 16.8633C72.4018 17.0046 72.2059 17.0752 71.9461 17.0752C71.6863 17.0752 71.4904 17.0046 71.3582 16.8633C71.2306 16.722 71.1668 16.5465 71.1668 16.3369ZM74.9982 16.3369C74.9982 16.1182 75.062 15.9359 75.1896 15.79C75.3218 15.6442 75.5177 15.5713 75.7775 15.5713C76.0373 15.5713 76.2332 15.6442 76.3654 15.79C76.5021 15.9359 76.5705 16.1182 76.5705 16.3369C76.5705 16.5465 76.5021 16.722 76.3654 16.8633C76.2332 17.0046 76.0373 17.0752 75.7775 17.0752C75.5177 17.0752 75.3218 17.0046 75.1896 16.8633C75.062 16.722 74.9982 16.5465 74.9982 16.3369ZM78.8296 16.3369C78.8296 16.1182 78.8934 15.9359 79.021 15.79C79.1532 15.6442 79.3491 15.5713 79.6089 15.5713C79.8687 15.5713 80.0646 15.6442 80.1968 15.79C80.3335 15.9359 80.4019 16.1182 80.4019 16.3369C80.4019 16.5465 80.3335 16.722 80.1968 16.8633C80.0646 17.0046 79.8687 17.0752 79.6089 17.0752C79.3491 17.0752 79.1532 17.0046 79.021 16.8633C78.8934 16.722 78.8296 16.5465 78.8296 16.3369Z" fill="#BBC4D6"/>
</svg>
